<?xml version="1.0" encoding="UTF-8"?><svg id="katman_2" xmlns="http://www.w3.org/2000/svg" viewBox="0 0 680.96 241.68"><defs><style>.cls-1{fill:#002957;}.cls-2{fill:#26a9e1;}</style></defs><g id="_Katman_"><g><g><g><path class="cls-1" d="m321.97,147.97h-40.05l-6.09,18.42h-33l41.17-112.93h36.2l41.01,112.93h-33.16l-6.09-18.42Zm-20.02-60.55l-12.01,36.52h24.19l-12.17-36.52Z"/><path class="cls-1" d="m414.09,167.52c-25.15,0-44.69-12.02-45.97-36.2h33.48c.64,8.49,5.61,11.37,11.37,11.37s9.93-2.88,9.93-8.17c-.16-18.1-54.94-9.61-54.46-48.86,0-22.11,18.42-33.96,42.29-33.96,25.95,0,42.93,12.65,44.05,35.08h-34.12c-.32-7.05-4.64-10.25-10.41-10.25-4.65-.16-8.33,2.56-8.33,8.01,0,16.82,54.3,11.37,54.3,47.58,0,19.86-15.38,35.4-42.13,35.4Z"/><path class="cls-1" d="m542.24,147.97h-40.05l-6.09,18.42h-33l41.17-112.93h36.2l41.01,112.93h-33.16l-6.09-18.42Zm-20.02-60.55l-12.01,36.52h24.19l-12.17-36.52Z"/><path class="cls-1" d="m638.68,128.27h-15.54v38.12h-31.4V53.46h46.93c28.03,0,42.29,15.86,42.29,37.64,0,19.7-13.62,37.16-42.29,37.16Zm-3.04-24.99c9.45,0,13.3-4.81,13.3-12.17s-3.84-12.34-13.3-12.34h-12.49v24.51h12.49Z"/></g><g><g><path class="cls-1" d="m243.16,186.93h6.35l12.59,28.12,12.54-28.12h6.3v35.86h-5.88v-24.56l-10.94,24.56h-4.08l-10.99-24.56v24.56h-5.88v-35.86Z"/><path class="cls-1" d="m300.12,193.9c4.8,0,8.1,2.27,9.86,4.59v-4.13h5.93v28.43h-5.93v-4.23c-1.81,2.43-5.21,4.7-9.96,4.7-7.38,0-13.31-6.04-13.31-14.81s5.93-14.55,13.42-14.55Zm1.24,5.11c-4.39,0-8.62,3.3-8.62,9.44s4.23,9.7,8.62,9.7,8.62-3.46,8.62-9.6-4.18-9.55-8.62-9.55Z"/><path class="cls-1" d="m329.52,222.79h-5.88v-28.43h5.88v4.13c1.65-2.84,4.49-4.59,8.51-4.59v6.09h-1.5c-4.33,0-7.02,1.81-7.02,7.84v14.96Z"/><path class="cls-1" d="m342.68,186.83c0-2.12,1.65-3.77,3.77-3.77s3.72,1.65,3.72,3.77-1.65,3.77-3.72,3.77-3.77-1.65-3.77-3.77Zm.77,7.53h5.88v28.43h-5.88v-28.43Z"/><path class="cls-1" d="m377.25,206.9c0-5.21-2.84-7.89-7.12-7.89s-7.17,2.68-7.17,7.89v15.89h-5.88v-28.43h5.88v3.25c1.91-2.32,5.06-3.71,8.46-3.71,6.66,0,11.66,4.18,11.66,12.12v16.77h-5.83v-15.89Z"/><path class="cls-1" d="m402.79,223.26c-8.15,0-14.19-5.78-14.19-14.71s5.78-14.65,14.19-14.65,13.83,5.62,13.83,13.98c0,.98-.05,1.91-.21,2.89h-21.72c.41,4.7,3.77,7.53,8.1,7.53,3.61,0,5.62-1.75,6.71-3.97h6.35c-1.6,4.95-6.09,8.93-13.06,8.93Zm-8.05-17.24h15.74c-.1-4.39-3.56-7.17-7.95-7.17-3.97,0-7.17,2.68-7.79,7.17Z"/></g><g><g><path class="cls-1" d="m445.59,189.86c2.23,0,3.75,1.13,4.45,2.38v-2.18h2.01v11.95h-2.01v-2.22c-.72,1.29-2.27,2.42-4.47,2.42-3.18,0-5.65-2.51-5.65-6.22s2.46-6.13,5.67-6.13Zm.39,1.72c-2.18,0-4.03,1.59-4.03,4.4s1.85,4.47,4.03,4.47,4.06-1.64,4.06-4.45-1.88-4.43-4.06-4.43Z"/><path class="cls-1" d="m459.62,202.2c-2.79,0-4.75-1.53-4.89-3.71h2.05c.11,1.16,1.13,2.03,2.81,2.03,1.57,0,2.44-.78,2.44-1.77,0-2.66-7.07-1.11-7.07-5.56,0-1.83,1.72-3.34,4.38-3.34s4.38,1.42,4.51,3.75h-1.98c-.09-1.2-1-2.07-2.6-2.07-1.46,0-2.33.7-2.33,1.66,0,2.84,6.93,1.29,7.02,5.56,0,1.96-1.72,3.45-4.36,3.45Z"/><path class="cls-1" d="m476.82,202.2c-2.79,0-4.75-1.53-4.89-3.71h2.05c.11,1.16,1.13,2.03,2.81,2.03,1.57,0,2.44-.78,2.44-1.77,0-2.66-7.07-1.11-7.07-5.56,0-1.83,1.72-3.34,4.38-3.34s4.38,1.42,4.52,3.75h-1.99c-.09-1.2-1-2.07-2.6-2.07-1.46,0-2.33.7-2.33,1.66,0,2.84,6.93,1.29,7.02,5.56,0,1.96-1.72,3.45-4.36,3.45Z"/><path class="cls-1" d="m489.19,202.2c-3.38,0-5.95-2.4-5.95-6.19s2.66-6.15,6.04-6.15,6.04,2.38,6.04,6.15-2.73,6.19-6.13,6.19Zm0-1.74c2.07,0,4.1-1.42,4.1-4.45s-1.98-4.43-4.03-4.43-3.99,1.42-3.99,4.43,1.85,4.45,3.93,4.45Z"/><path class="cls-1" d="m503.14,202.2c-3.38,0-5.95-2.4-5.95-6.19s2.66-6.15,6.04-6.15,6.04,2.38,6.04,6.15-2.73,6.19-6.13,6.19Zm0-1.74c2.07,0,4.1-1.42,4.1-4.45s-1.98-4.43-4.03-4.43-3.99,1.42-3.99,4.43,1.85,4.45,3.93,4.45Z"/><path class="cls-1" d="m520.62,195.25c0-2.44-1.33-3.69-3.34-3.69s-3.42,1.27-3.42,3.84v6.61h-1.98v-11.95h1.98v1.7c.79-1.24,2.23-1.92,3.84-1.92,2.77,0,4.89,1.7,4.89,5.12v7.04h-1.96v-6.76Z"/><path class="cls-1" d="m536.58,189.86c2.23,0,3.75,1.13,4.45,2.38v-2.18h2.01v11.95h-2.01v-2.22c-.72,1.29-2.27,2.42-4.47,2.42-3.18,0-5.65-2.51-5.65-6.22s2.46-6.13,5.67-6.13Zm.39,1.72c-2.18,0-4.03,1.59-4.03,4.4s1.85,4.47,4.03,4.47,4.06-1.64,4.06-4.45-1.88-4.43-4.06-4.43Z"/><path class="cls-1" d="m550.62,202.2c-2.79,0-4.75-1.53-4.89-3.71h2.05c.11,1.16,1.13,2.03,2.81,2.03,1.57,0,2.44-.78,2.44-1.77,0-2.66-7.07-1.11-7.07-5.56,0-1.83,1.72-3.34,4.38-3.34s4.38,1.42,4.51,3.75h-1.98c-.09-1.2-1-2.07-2.6-2.07-1.46,0-2.33.7-2.33,1.66,0,2.84,6.93,1.29,7.02,5.56,0,1.96-1.72,3.45-4.36,3.45Z"/></g><path class="cls-1" d="m447.11,210.89c3.21,0,5.67,2.4,5.67,6.13s-2.46,6.22-5.67,6.22c-2.18,0-3.73-1.18-4.47-2.4v7.87h-1.98v-17.62h1.98v2.2c.72-1.27,2.29-2.4,4.47-2.4Zm-.41,1.72c-2.16,0-4.06,1.66-4.06,4.43s1.9,4.45,4.06,4.45,4.06-1.66,4.06-4.47-1.85-4.4-4.06-4.4Z"/><path class="cls-1" d="m460.61,223.23c-3.38,0-5.95-2.4-5.95-6.19s2.66-6.15,6.04-6.15,6.04,2.38,6.04,6.15-2.73,6.19-6.13,6.19Zm0-1.74c2.07,0,4.1-1.42,4.1-4.45s-1.98-4.43-4.03-4.43-3.99,1.42-3.99,4.43,1.85,4.45,3.93,4.45Z"/><path class="cls-1" d="m473.58,223.23c-2.79,0-4.75-1.53-4.89-3.71h2.05c.11,1.16,1.13,2.03,2.81,2.03,1.57,0,2.44-.78,2.44-1.77,0-2.66-7.07-1.11-7.07-5.56,0-1.83,1.72-3.34,4.38-3.34s4.38,1.42,4.52,3.75h-1.99c-.09-1.2-1-2.07-2.6-2.07-1.46,0-2.33.7-2.33,1.66,0,2.84,6.93,1.29,7.02,5.56,0,1.96-1.72,3.45-4.36,3.45Z"/><path class="cls-1" d="m484.96,223.23c-2.79,0-4.75-1.53-4.89-3.71h2.05c.11,1.16,1.13,2.03,2.81,2.03,1.57,0,2.44-.78,2.44-1.77,0-2.66-7.07-1.11-7.07-5.56,0-1.83,1.72-3.34,4.38-3.34s4.38,1.42,4.52,3.75h-1.99c-.09-1.2-1-2.07-2.6-2.07-1.46,0-2.33.7-2.33,1.66,0,2.84,6.93,1.29,7.02,5.56,0,1.96-1.72,3.45-4.36,3.45Z"/><path class="cls-1" d="m491.78,207.79c0-.76.59-1.35,1.35-1.35.72,0,1.31.59,1.31,1.35s-.59,1.35-1.31,1.35c-.76,0-1.35-.59-1.35-1.35Zm.33,3.29h1.98v11.95h-1.98v-11.95Z"/><path class="cls-1" d="m503.92,210.89c3.23,0,5.67,2.4,5.67,6.13s-2.46,6.22-5.67,6.22c-2.18,0-3.73-1.09-4.47-2.4v2.2h-1.98v-16.14h1.98v6.41c.76-1.33,2.36-2.42,4.47-2.42Zm-.42,1.72c-2.16,0-4.06,1.66-4.06,4.43s1.9,4.45,4.06,4.45,4.06-1.66,4.06-4.47-1.85-4.4-4.06-4.4Z"/><path class="cls-1" d="m512.2,206.89h1.98v16.14h-1.98v-16.14Z"/><path class="cls-1" d="m522.74,223.23c-3.4,0-5.91-2.4-5.91-6.19s2.42-6.15,5.91-6.15,5.74,2.44,5.74,5.71c0,.44-.02.79-.07,1.2h-9.55c.15,2.42,1.85,3.75,3.88,3.75,1.79,0,2.92-.91,3.36-2.2h2.14c-.61,2.18-2.53,3.88-5.49,3.88Zm-3.86-7.04h7.55c.02-2.33-1.72-3.62-3.77-3.62-1.94,0-3.55,1.29-3.77,3.62Z"/></g><rect class="cls-1" x="426.79" y="189.66" width=".94" height="37.28" rx=".08" ry=".08"/></g></g><g><g><path class="cls-2" d="m94.4,2.11v162.66c0,1.16.94,2.11,2.1,2.11h109.16c1.68,0,2.69-1.88,1.75-3.28L98.25.94c-1.16-1.73-3.85-.91-3.85,1.17Z"/><path class="cls-2" d="m81.66,52.96v111.8c0,1.16-.94,2.11-2.1,2.11H2.11c-1.7,0-2.7-1.91-1.73-3.3L77.82,51.76c1.18-1.7,3.83-.87,3.83,1.2h0Z"/></g><path class="cls-2" d="m143.87,178.72h24.43c1.19,0,2.14.99,2.1,2.19-1.15,35.82-30.46,60.77-66.52,60.77s-65.37-24.95-66.52-60.77c-.04-1.19.91-2.19,2.1-2.19h24.43c1.12,0,2.04.88,2.09,2,1.04,20.06,17.59,35.99,37.79,35.99,20.39-.1,36.95-16.03,37.99-35.99.06-1.12.98-2,2.09-2h0Z"/></g></g></g></svg>