<svg preserveAspectRatio="xMidYMid meet" fill="#fff" data-bbox="3.2 3.2 69.6 69.6" viewBox="3.2 3.2 69.6 69.6"
  xmlns="http://www.w3.org/2000/svg" data-type="shape" role="img" aria-label="Instagram Logo">
  <g>
    <path
      d="M57.1 21.9C54.6 18.4 51 17.1 47 17c-6-.1-11.9-.1-17.9 0-4.4.1-8.2 1.6-10.6 5.6-1.1 1.7-1.4 3.7-1.8 5.6 0 6.5 0 13.1.1 19.7.4 1.9.7 3.9 1.8 5.6 2.5 4 6.3 5.5 10.7 5.6 5.8.1 11.7.1 17.6 0 2.2 0 4.4-.5 6.4-1.6 4.3-2.4 5.9-6.3 6-10.9.1-5.8.1-11.5 0-17.2 0-2.7-.6-5.2-2.2-7.5zm-2 24.8c0 .7-.1 1.4-.3 2.1-.9 3.8-3.5 6-7.9 6.1-6 .2-12 .2-18 0-5.3-.2-8.1-3.1-8.2-8.6-.1-5.5 0-11.1 0-16.6 0-.8.1-1.7.3-2.5.8-4 3.6-6.1 8.2-6.2 3-.1 5.9 0 8.8 0 3.5.1 6.9-.2 10.4.1 3.7.5 6.2 3 6.5 6.7.6 6.3.2 12.6.2 18.9z">
    </path>
    <path
      d="M38 27.1C32 27 26.9 32 26.9 38c0 6.1 5 11.1 11.1 11 6.1-.1 11-5 11-10.9 0-6.1-4.8-10.9-11-11zm-.1 17.8c-3.8 0-6.9-3.1-6.9-6.9s3.2-6.9 7-6.9 6.9 3.1 6.9 6.9-3.2 6.9-7 6.9z">
    </path>
    <path d="M49.3 24.2c-1.5 0-2.7 1.2-2.7 2.6.1 1.5 1.3 2.6 2.8 2.6 1.4 0 2.6-1.2 2.6-2.6 0-1.4-1.2-2.6-2.7-2.6z">
    </path>
    <path
      d="M59.2 3.2H16.8C9.3 3.2 3.2 9.3 3.2 16.8v42.4c0 7.5 6.1 13.6 13.6 13.6h42.4c7.5 0 13.6-6.1 13.6-13.6V16.8c0-7.5-6.1-13.6-13.6-13.6zm11.6 56c0 6.4-5.2 11.6-11.6 11.6H16.8c-6.4 0-11.6-5.2-11.6-11.6V16.8c0-6.4 5.2-11.6 11.6-11.6h42.4c6.4 0 11.6 5.2 11.6 11.6v42.4z">
    </path>
  </g>
</svg>