<svg preserveAspectRatio="xMidYMid meet" fill="#fff" data-bbox="3.2 3.2 69.6 69.6" viewBox="3.2 3.2 69.6 69.6"
  xmlns="http://www.w3.org/2000/svg" data-type="shape" role="img" aria-label="LinkedIn Logo">
  <g>
    <path d="M24.7 20.9c-2.3 0-3.8 1.9-3.8 4 0 1.9 1.5 3.6 3.8 3.6 2.5 0 3.8-1.7 3.8-3.8s-1.5-3.8-3.8-3.8z"></path>
    <path d="M28.5 30.4v24.7h-7.6V30.4h7.6z"></path>
    <path
      d="M46.7 30.8c-4 0-6.3 2.3-7.2 3.8h-.2l-.4-3.2h-6.8c0 2.1.2 4.6.2 7.4v16.3h7.6V41.6c0-.8 0-1.3.2-1.9.6-1.3 1.5-3 3.6-3 2.7 0 3.8 2.3 3.8 5.3v13.1h7.6V41c0-7-3.6-10.2-8.4-10.2z">
    </path>
    <path
      d="M59.2 3.2H16.8C9.3 3.2 3.2 9.3 3.2 16.8v42.4c0 7.5 6.1 13.6 13.6 13.6h42.4c7.5 0 13.6-6.1 13.6-13.6V16.8c0-7.5-6.1-13.6-13.6-13.6zm11.6 56c0 6.4-5.2 11.6-11.6 11.6H16.8c-6.4 0-11.6-5.2-11.6-11.6V16.8c0-6.4 5.2-11.6 11.6-11.6h42.4c6.4 0 11.6 5.2 11.6 11.6v42.4z">
    </path>
  </g>
</svg>