<svg preserveAspectRatio="xMidYMid meet" fill="#fff" data-bbox="3.2 3.2 69.6 69.6" viewBox="3.2 3.2 69.6 69.6"
  xmlns="http://www.w3.org/2000/svg" data-type="shape" role="img" aria-label="Twitter Logo">
  <g>
    <path
      d="M57.8 21.8c-.3-.1-.5.1-.7.2-1.2.7-2.5 1.1-3.8 1.5-.6.1-1.1.1-1.6-.4-2.5-2.4-6.5-2.8-9.6-1.2-3.1 1.6-5 5.1-4.6 8.5.2 1 .1 1.1-.9 1-1.9-.2-3.7-.6-5.5-1.2-4.1-1.4-7.5-3.8-10.4-7-.6-.6-.8-.6-1.1.2-1.3 3-1 5.9.9 8.6.4.7 1.1 1.2 1.7 1.9-1 0-1.8-.2-2.6-.6-.8-.4-.9-.3-.8.6.1 2.2 1.1 4.1 2.7 5.6 1 .9 2.2 1.6 3.7 2-1 .3-1.8.2-2.6.2s-.8.1-.5.8c1.1 2.4 2.8 4 5.3 4.8.6.2 1.3.3 2.1.5-3.7 2.6-7.7 3.7-12.3 3.3.2.2.2.3.3.4.2.1.3.2.5.3 4.8 2.7 10 3.8 15.6 3.2 6.6-.8 12.1-3.8 16.1-9.2 3.4-4.5 5.2-9.6 5.1-15.3 0-.7.2-1.1.7-1.5 1.1-.8 2-1.8 2.9-2.9.1-.3.4-.5.4-1-1.4.5-2.8.9-4.2 1.1 1.5-1.2 2.6-2.6 3.2-4.4z">
    </path>
    <path
      d="M59.2 3.2H16.8C9.3 3.2 3.2 9.3 3.2 16.8v42.4c0 7.5 6.1 13.6 13.6 13.6h42.4c7.5 0 13.6-6.1 13.6-13.6V16.8c0-7.5-6.1-13.6-13.6-13.6zm11.6 56c0 6.4-5.2 11.6-11.6 11.6H16.8c-6.4 0-11.6-5.2-11.6-11.6V16.8c0-6.4 5.2-11.6 11.6-11.6h42.4c6.4 0 11.6 5.2 11.6 11.6v42.4z">
    </path>
  </g>
</svg>